<mxfile host="app.diagrams.net" agent="Mozilla/5.0 (Windows NT 10.0; Win64; x64) AppleWebKit/537.36 (KHTML, like Gecko) Chrome/127.0.0.0 Safari/537.36" version="24.7.7">
  <diagram name="Page-1" id="k8kFNZvOTOQvBEoliPpE">
    <mxGraphModel dx="880" dy="500" grid="1" gridSize="10" guides="1" tooltips="1" connect="1" arrows="1" fold="1" page="1" pageScale="1" pageWidth="827" pageHeight="1169" math="0" shadow="0">
      <root>
        <mxCell id="0" />
        <mxCell id="1" parent="0" />
        <mxCell id="lkZm1Jz9UNGzNPRQoXGV-1" value="" style="rounded=0;whiteSpace=wrap;html=1;" parent="1" vertex="1">
          <mxGeometry x="10" y="10" width="800" height="450" as="geometry" />
        </mxCell>
        <mxCell id="lkZm1Jz9UNGzNPRQoXGV-2" value="" style="ellipse;whiteSpace=wrap;html=1;" parent="1" vertex="1">
          <mxGeometry x="720" y="20" width="80" height="50" as="geometry" />
        </mxCell>
        <mxCell id="lkZm1Jz9UNGzNPRQoXGV-3" value="username" style="text;html=1;align=center;verticalAlign=middle;whiteSpace=wrap;rounded=0;" parent="1" vertex="1">
          <mxGeometry x="730" y="80" width="60" height="30" as="geometry" />
        </mxCell>
        <mxCell id="lkZm1Jz9UNGzNPRQoXGV-4" value="Profile Picture" style="text;html=1;align=center;verticalAlign=middle;whiteSpace=wrap;rounded=0;" parent="1" vertex="1">
          <mxGeometry x="730" y="30" width="60" height="30" as="geometry" />
        </mxCell>
        <mxCell id="lkZm1Jz9UNGzNPRQoXGV-5" value="" style="rounded=0;whiteSpace=wrap;html=1;" parent="1" vertex="1">
          <mxGeometry x="30" y="180" width="140" height="100" as="geometry" />
        </mxCell>
        <mxCell id="lkZm1Jz9UNGzNPRQoXGV-6" value="" style="rounded=0;whiteSpace=wrap;html=1;" parent="1" vertex="1">
          <mxGeometry x="30" y="300" width="140" height="150" as="geometry" />
        </mxCell>
        <mxCell id="22zQzniioK6n2DwNS2DO-1" value="" style="rounded=0;whiteSpace=wrap;html=1;" parent="1" vertex="1">
          <mxGeometry x="30" y="20" width="660" height="70" as="geometry" />
        </mxCell>
        <mxCell id="22zQzniioK6n2DwNS2DO-2" value="" style="shape=image;verticalLabelPosition=bottom;labelBackgroundColor=default;verticalAlign=top;aspect=fixed;imageAspect=0;image=data:image/png,iVBORw0KGgoAAAANSUhEUgAAA6AAAADPCAYAAADrj7yjAAAAAXNSR0IArs4c6QAAAARnQU1BAACxjwv8YQUAAAAJcEhZcwAADsMAAA7DAcdvqGQAAD8ZSURBVHhe7d0JmBXVnffxfzfYNDvtioCgIAoKUQSTMNFRE41LQnCbOGowGpnkxRFBfTHG93F/okbGlYyMicYoETUGFcm4BKKgJiQRREWBEMCFPTE0iNAL23t/p+tcq4t7e7l0F9XF9/M89XTfU/W/td6q+tc5VVW0I8MAAAAAAGhmxcFfAAAAAACaFQkoAAAAACAWJKAAAAAAgFiQgAIAAAAAYkECCgAAAACIBU/BBQAAANBo90wvt9/M3Wjvr6q26q2kFElX0rrIjuxWYucO7mhXnlIWlMaPBBQAAABAgy37xxYb8fBqm/dxVVCClmZQzzY26dIDrfd+ewUl8SEBBQAAANBgX7njY5LPFFAS+odrewaf4sM9oAAAAAAaRM1uST7TQetR6zNuJKAAAAAAGkT3fCI9dsf6JAEFAAAA0CB64BDSY3esTxLQeixb9oGdPuwsmzP3reznERePdH+bg8aj8TXX9zdEZWWlXXf9TXb/TycGJU2nuZaflttFl/yHla9fH5QAAACgqfG023TZHeszbwKq5OPgQ/tnu3zJiBIJJUy5hvOJjO9HggAAAAAAe66cCaiSyv79DrMPlyx03bw5s10N03NTpwVD1FDZf465yv77vruzw15x+SjXT8nnLT++w7oecEC235DBx9j4u+51/XYnnxhH5yeX3r0PsRenPeumvanlqrXTeDQ+jXd3KS0ttdtuvSm7LgvVUmslNb2abk0/AAAAgKaTMwFV8nPKyV8LPpmVdeliZ5/5LfvLnLnZ5FEn6Y9Oetwln7mSpffeX2ArVqy0Ed85Pygx97/K1A8AAABNqyJznnbHPRNt5Ogfuu7BRyYHfZrHsg8/thtvuydzXrjBpr04w3W7St/R3NNdKM2n5lfzDaAwBd8DOmvW69axY0fr1u3AoGRnPXp0t7alpcGnmkRWNXxKQuuimknfbDfarNfXTvl+0fsl/T2GvvbND+drO9X/rH873yY/8ZSNvfqaWv00Ht/5cv994XFIZVXt5sXRaRw99uqdYvx3+//PPe9Ce+31N2zQkKHZmsJctYa7Os+e+vt+6sLTHBatIQ5/VoyPV1m+2ux88+etKy+vc1qj81zXuPIJT6u6cI2mnyffzy9TDaPp1XRr+qNxnr47uvyiy03C0xBdb9F5jC4jvz6nz/i961/IMgAA7DmUFF1zw+12yknH2UMTfuK644ceu0vJkmLvm/gLl9jm0vvgnnbzdVdmzvE6ByWNFx3HsNNPth9ccoH7f3dQ8jv37fnBp9qfNZ+aX803gMI0KAHVSa9qP784ZLBrnikfL1/hPv/soUfynkAr0QzvsPQ9a9audbH56IT9meeed81+ffPf/fbb1/XTyfsFIy5xtbG+We+tN11vX/36GbWShE/++U/3PffdM94N85unHrcHH/qFi1dt7bNPP2EXnH+e3XvXna7/mcOHBZFmd997v/3L0C/tVB6m77/6muts5CXfdcP5JsrRhKQuat6q6frX449z8Y898nOXoEc1xTyL/t434QF75XcvZKfZL9eGUsLul43itX5fenl60Le2uuavvmnVNjTmynHuO9RfnZpyq0l3QxMwfVe4GbnGcf1Nt2bHoe023Dz8qjGXu3JdINH0aroVo365ml9rOWj5h7f3VatW2/LMtv2FgQPcZ789+HFovanJup+GOZnf1E3XX5ftr/FEm6grEV64aLHrr2bR/vcHAEDU9FffsIsvONcGHz0wKDE7ol9fkiUAidKgBFQn60o2TjjhePfZJ5LhhCR6At2nT2837KRfPeH+ipIV1TzmoxPzN4OTcp+s6O/55/2b+/+3L7xkp5/69VqJocZ51dgr7I+z/xyU1FDy4r9jwJFH2KCjj7J357/nPtdFiamGr4+SCd/0WOPR+KIJSVNoqnlWjWNRUZGV7V3mPoeXa0NpnD4ZU3y0WXZj1DWtql3XePy45JtnnOaSOyV5DRFtRq7tcb9993XLwW+/PQ/qEfQ1N2yupuT5aJpVw7906bKgxNz0HztksPsebct/W7KkVhP06HxGx6nfUvSiTf/+/dy8AwBQFzUNVVdXsqmaPN80V810/fHG10D++tn/df1GX3OjK1N3zwMP2/wFf7XR4250tYBqHvvYE1NcTau+L1p7WVFZlW0CrGE0TaLYcLNa/znfOMJNefNNt4bRNPvxhfuF6TtzxYe/149PZW++9Y5NfPhXbtgHHppU6/OqNWvdX7+89f+MmW9kv0fj8vSdvlzLLBynZaNyv6yBPUmdCaiSKdVq6mT9ZxMnZBMGL5yQiE6U5739jrvHU8OqhktJma8hFcWET/zDlBwclOmXq1mvTxp0kh6lMvXzidC+++xje5fVJFqNpVqx+mqZcn2/Pu/YscPK15UHJbuuKefZJ0xqXhpt7tpQ+dZbY9U3raohV020327UqcZXNaeNoSTQP6HZN6sVrV8lz7qAEq21byh9h1oA+IsAWg9Kxv260rY87bcvuPH6eeg3YNBOF2C0Lnx/NfmNUtLsLxoAAJCPkpq2pW0yx6c2QUltPvnzTXOP7Nc3kxQ948pkyQcfuXj1+/pJx7vaVCWzV152qQ084nCbMP7mbM3qewsX24+uuixnM9nXZ//Fvn3WN7LNf5Ug1iXfOLz6ptuPT7GyYNHf3F9PyeYbs9+0667+Txd/7ZWjMvNZ6r53yKCBrkyxPuHWPB17zFE26tLvuGEvGzmi1ufwrWWyrny9Lf3gY/c9GkbLTeNUIvp6Zrzjb73O9VPTXQ0rmh4tGzfuO2/e6aLB86HENdqpXyqM6GWbH+gbdL3sgaDYCfe74YCg0OyBG/zwtcs/V2Yv3NXXVo/lvCnp8iagOnn3TT+jTf/0vxK1KJ0o64TZUxKqppe+hvS0U09xSZMSIcRL60zrUc1L1cRZCU+hiWgcfPPocNeYpwOr+Wv4Cc2+Wa2nCycq1/ad6x7VhlBTW9VyKk41sx07dHCJvqfa9EXvzas1D+pUm+0v7ihp9cOoyS8AAIVQgqPax8pMF+Vr/JSoecdlEiBfGyeHHtLLTj6p5jh5ZP/D3IXVXLWJouQp3z2fSl59QhUdR2M1ZLr9+JQYKjldtXqtK/dUrnOg//nF49kYfa/+V62mkjrVvKoGtpDp3LusS3b6/HxrHWg6wstJ061hpduBB9jUF6bXqi0N+9bpJ9u3zjgl+PQ5lalfGjywz1b70WV/s3bqZptdfFd3G6MeX+1uq4ea/dL1+8Rmdu5kb41QjwPs4E8/qRk+0/3SOu2caI7oZCe2Df5HouVMQJV86uRdzUzz3Qep2rBwDZyo9k+1gPlqt/yTcX3z3CjF5Wtm6ZPeaLNTUVlDai6bk5pVhmtvN2z41NWCeb42szGaY579RQEleIU2n21u2rZ2ZdqU3KnmPdxMOh9t30pOJdyctiH03X0PPdTFaf3373d4dn3UtS2LH9e4q8fu1u0WAJAOvuaT5pw7U62mamxvv/sBUzPYyqqqTGLaJlsr6rto7euuWLXm7y7RzEXj0fjmzJuftwluNAlNU/Ipl9270u4L/reVW82n/mO+kDknWvypXeY+ldsZb1dbv0O0HNfaGfd+fl7910+3B/95ZfbC0WYzF0fLkUQ5E1CdTOu+w3Dz2ijdDxp+CI2ShYceedT8PXD6rKd3ekpq9RCY8L1/UYpT/E233uaSCNHfJ5562v2vJr4vvvy7WjV3SjRU1pj75HxiV9fDkOqipqDhadS86SE6/iFNmj8tO9U0+iQq1/2vSlLqa7bbVPOsGHVxasj85aKaRTXlDj/gKLwd1EdXO1XLru3T073Ivgmu1snkJ3+dN8HNFZ+PmtxOn/GKLVz01+zDh0QXInRBQr+J8Hg0D5qX6LJRWWMeYgUAQJiOXXr67S8n/6ZWQqP7E1dnkiEJN4dVM1DVzuWrySzU+4v+lq25DI9DnWoFfS2jkq/6aJ6kKaZbw+vptUo8y8s3uPM1NZdtLmre65vjiqbbN8H1lBirBvf9hYuDktp8Epq25HMn3Vtb5w1bXUJ6eKdiW/3P0HmjktPOrWtqR0Oiw40Zu7cNWv6pvRx8RrLlTEBz3YPnO5/E+Hs8fXNO3d+mpE4JpvfqrNezcb45ZF1JrShew/h75/S376F9XD8lqPoOJXv+e3XSPnnSI/XWdEX5xE7f0dimqLqHccSF/+6aKCte9yf+YOT3atUW+3eearloGNH9r2E+4VZ8viagTTnP/rUi6lTDeMP/u7ZZa98aMn+55JpnLesvHTskGKJumic9oTgcryfihpvgqjberxttY367E8X7e0TVv67EXbX5Sj7bt29fa33oO7R8xY9HnQ6m+u1o2HPOGu6Wjcr11F9tUwAAFEo1a7qfUg/1UdNSdRUVla5p6EXnn+2SP1+uRFFl9Tmw6/6ZJKoq+4Cg+ijB8w/YCY9D06AawXHX3+b6hdU1jkKn21MCqFpPxer7NR25lkf4gUlKHv1DhxQf/dwQWhdKejVOfb++2zfBDT+cSPPjmz7n4pLQNCefdoC9NbS1zXyjEa0ER/SyiztvtkcnBZ+/2t2uPSiznkM1pEi2oh2qhgFQECXV/pUx9V1cAQAAeybVSivx/P4lF7iL0S2Z7sFsEnrYkLvf86OgyW3Ng4a+/MHf7JhQcrn6G2Z3XF3TZFf9L7ZPrd0tPmHNJLAPlNqfgu8YM7aPXWvr7ECS0UbRg53iVOdTcAHUzd/Lme++ZgAAAP9U4ZaefDYZJZ+HVGaS2c+TT9G9nQfuE3qWTKh5rk9OP08+lXB2sH5WYhcHT8e9/bBi63zYvnmekoukoAYUKJDu7bzlx3e4e3/Dza8BAMCeTTWeagqtJtCiV7nons802PUaUL0upZN9eHXt5NNRjee5re1Zl5hquH2t69t/s2NWZsqP22oHhpLPXKgBLUzcNaAkoEABdN+w7hHVfb3h+54BAADSbNcTUDWb7WT9gk81ttvM3yy1M16pSSJVkykbFn9Sk0y65rolriyrYrP9KGia65GAFoYEFAAAAEAiNdk9oEgM7gEFAAAAAKQSCSgAAAAAIBYkoAAAAACAWJCAAgAAAABiQQIKAAAAAIgFCSgAAACABilpXRT8hzTYHeuTBBQAAABAgxzZLfI+TrRou2N9koACAAAAaJBzB3cM/kMa7I71SQIKAAAAoEGuPKXMBvVsE3xCS6b1qPUZt6IdGcH/O6moqrZPyjfaZ5srrLp6S1AKAAAAoLmV7NXaOrQrtX337mxt2ySn6euyf2yxEQ+vtnkfVwUlaGmUfE669EDrvd9eQUl88iagmyqqbPnqf1ibktbWpVNHK+vUPugDAAAAoLmVf7rJ1n+60aqqt9pBB+5n7dsmq+bxnunl9pu5G+39VdVWvTVvnRYSQg8c0j2fana7O2o+vZwJqGo+P1r5dyst2csO7nFAUAoAAAAgbh+uWGuV1VusV/f9E1UTChQi5z2gn6z71NV8knwCAAAAu5fOyXVurlvjgJYuZwK6qaLCNbsFAAAAsPvp3PyzzZuDT0DLlTMBVTtz7vkEAAAAkkHn5tWZc3SgpeM1LAAAAACAWJCAAgAAAABiQQIKAAAAAIgFCSgAAAAAIBYkoAAAAACAWJCAAgAAAABiQQIKAAAAAIgFCSgAAAAAIBYkoAAAAACAWJCAAgAAAABiQQIKAAAAAIgFCSgAAAAAIBYkoAAAAACAWJCAAgAAAABiQQIKAAAAAIhFKhPQ56ZOs+uuv8kqKyuDkqZVvn69XXTJf9jBh/Z33Zy5bwV9Wq5lyz6w04edlZ2n5lx+SaRtRutU6zbs4UcedcumpdH8+HWpTuu2Jc7HrtJv8/6fTgw+tWzRdVrffGl4dUmV7zcnWm/5+qWRlkUa9rlpXKdp2ocUqqHLIOn7nLC0/OaAlip1Cah2Jh8vX+H+f+/9Be5vU9L3j7/rXrvi8lH24ZKFtui9eVZeXh70bZmUmNx4y4/tv++7282TurPP/JZ9f9Toek8WdFDSwSkNOnXqaJN+9UTwqeW79647s+tT6/Y/x1yVmnW1pwqvU+2DWjr95pYuXRZ8qqF97PQZr1iPHt2DknRr7mNW3FinSLq0/eaAlih1CeiqVautfft2LoH64+w/B6VNpyKz45I+fXq7v6WlpXbKyV9z/7dE2hE/9MijNmb0Zda79yFBqdmQwce4ZThr1utBSfr9y9Av26ZNm1JZU6h1qyRUJ4Fa50ASdO/WbadtsmYf3t66HnBAUJJuzX3MihvrFEmXtt9cSzX37fk2cvQPXXfNDbdb+foNQZ/a/R58ZHJQau7/XOV1fReSKXUJ6Lvz37OjvjDQJYhr1q7N1uApqbj9J/+VPShGP6s5hm/apmaXapqRq/avrEsXdxBVLWiuE3nVMPnv8c079D36f/qM32f7JaWZSjShDtPVan+VUFTbGZ5+fb773vvt3PMuTEVTlnZt29opJ3/VJeS55kVlmk+/DHyTJL8svOi2lRTduh3o/urgK7m2VdH0++bYaWoGGZ7fcJNkv74mP/nrnfq1BNHtMlzLvbmiItsvieuyV6+e7q/fJuW3L7xk/fsd5vbfku93J/pf603rLCn71MbKd8yq67jh++lYlbTtdVfWaa596eixVydmu9W0hX9f4c+adm2Lfr70N2nHgKZQ1zJoKZr7PBENoyRxwvib7aEJP7Hzzv6mSyh1Trrsw4/t+Rdm2Phbr3P9NZwSTP0d0P8wN7w6mfbiDPe3bWlp9ruOH3qs/frZ/3XlSK5UJaDaEfxlzly3U/GJYrQpUC7aeT7z3PM2b85s17Rtn733thUrVgZ9d6amb18cMtj6DRhU62Cp79HVNN9ETsO89PJ010/ft3DRYleu8fz+1ZmJOGkoX1duHTt0cD/eqL3LylyNoHa+/sTHz9uZw4e55XDV2CvsN089brfdepOrDW7pVPOr7cavN0/L4JYf3+HWqV8GouVywgnH1zqI6eDWv9/hiV4e+bZVzcM99/802xz7sUd+7n5LaaB16+f31puudyfF3mtv/MFdgFC/H4z8Xq1+STL26muyJ0Da9rRd3nPfT23kJd910659i/Zlfluc9PgT2X662p+0Jub+oo9f3n66Bww40v0V/Y60f9E86JaHaCsFNaF79ukn3D6ppanvmFXXcUP9dKx6cdqztVqv7G67sk5z7Uu/dtKJLWYf5H9vmieheWfy1Peby6ex54mo38knHpc99yzr0jnzfxv3//sLF9uQQQODslI75aTjbM68+e7zV748xA0j3bruH/xndkS/vtnvOjKTpOrY6CtYkEypSkC1E9HOxB+s/mXolxrUvEI7EZ2c+TgdBOu7V0UnO9oJiU9C9T2qEfQniDpZ9DWI+r4R3znf/a/x6KCqg+vuVrZ3mW387LO8P9T999/P/V246K/2zTNOc/+nndaTDlD+JEi0fLRtnXbqKUGJueWh5aKdnj+Iaaenda5tKInUDE7rPN+2qnnoe+ihiTqhbSpaN752QrX2OtFVmfzrcV/JrtsvDByQvfCSNOF7QLUP0napbfCrXz/DzdegIUNt3tvvuAtLomTar8voyX1ShGsh1OS/50E9drp4o5M/zZ8u+j3484dtXei+e+27W+rFr/qOWXUdN9QvqfuZQtep5jG8L9W2rd9jS+F/b5pXXdQjQUmeOM8T0XCq3dTvRudTq9b83bod+HlzfSWe2h9Ez1Ojw3lKYHsf3DObkCKZUpWAaicSPqnWSaYOcvWdcOnEu9AdiU4Owid14RNEdUl/UIj/gWqnHKUTHV3l049eSaoSlz2BDjA6eWhMbZE/iPkr3v4glSSaNm2rfp3n2lZ1kNXJYppofnTwUg22TiA0r6/87gVX858G2nf5q/LqklYjVh//e3vxpd/lvHjjax5Uq6T5U6uLtCj0mJV0u7JOdWHvnXfnuya8ugCahG05bfvEQqRlGeyO80TUTcmnmtyqprOhfJNc1XyKzlPvuGeiuwdUhp1+svuL5EpNAqqdh06uwydi6tTsTldglTytWr06e1+KkislVaLkQQdDX+Oh4fNdudR4nnjq6eBT5vO6ctu4caP7XzuncPO3MH2fT/LUX02pknBlV1ecdFJ+/U231mrWpuZ9mhedOOhkQlcM0/SE2PqoNky1YKpNEiVt2r7CTXNr7muqaWo74MgjXJkevpHEmmIdYLWO1TxM05tvW9U2OeXZqYloHt4UdLKheXUXUTK/UzUrl/DvvyXzFxPyPSxMNfnh/Vr4yn+SaLtT80WJTp/2nZpubbfaXrUtp4Hmpa5jliT1uNEQha5T3au+adNme3XWa+4+vd3N70NESZg+S5q2xfqkZRnU95trqvNENJwSydvvfsDGXvY9V2vZELpXVE1yr71yVPYYqL/67O8NVTIarTFFsqQmAY02q/C009BJmDZONV/yTdXUtMfXgPj7/tQUSP3+uW5ddmcbpe/Xd/mrZ3q1xZVXXO7K9T1K5tQMzvf3O2d/wq8y9f/uiAsTU0uh6fav6fDTrWX2s4kTssvz+yMvcTtu39/fE6rlm5aHEIXpxEj3MS0NEjF9Hnf12Ow6VCdqBinqrwOzDlb+YT+7W/h+QTUTnzzpkew2l29bVX89Edn/TlrqQ4i0fWr6RfOq7Tjf778ly7Vdhn+Lmsez/u18V67ftH7HSaTt7tyzz8x58UYXwbRtah7GXDku7765panvmFVVVZXo40Z9Cl2nfl+qfa+/sLc7RPchktZtMZ+0LYO4zhPRMEo+lUjeecuPMuukc1Bac2/nqtU1DyyTcPNcJZ+6P/QHl1wQ9N3ZySfp3tI2tnrN34MSJFHRjozg/6x3Fn1gR/VrOU24mppqf556eopdOeZyt9HvKp3A66m5OlGM7vgAAIjak48b/gKnv8AHJE1Tnyc2RhrO0VU7+dgTz9i3z/pGreRT9BTcRydPcbWipZlE8r6Jj7jmuRrujdlv2kXnnxMMWUPf9cGHy7PNcZXYTn/1DRsz6hKXtCKZUnUPaFMJN60EAADxUOLdkpoaY8/EeeKuqayssqUffGTjrr8t+/7O0dfc6JJPNcVVLaf6jR53ox2ZSSwHHz3Q1YS+9se/ZIdXp6a28nomMfVlTz3zW1dDSvKZbNSAZuhKlpqfLly4yH3WAxGa8uFB1IACABpjTzxuqOZTtw7o1V6+ySeQBM19ntgYe3orRaQDCSgAAADQAnCOjjSgCS4AAAAAIBapqQHd+NkmW79ho23bti0oqa1Vq1bWpXNH69ihfVBCjKQtZtqKmfbQ0im2vrrm1ThRXUo62sg+59iwHicGJSwDSdsyWPDpYptdPs8qt+V+MnNpq1IbWjbIjuh0WFAS33jiimE7SHYM64cYISa+/XUhMXH9ThuDGlCkQWoS0OUr11hJSYn7YeeiHUF1dbUd1L1rUEKMpC1m+KzRtqF4sxUVFwUlte3YvsM6b29nU0+YEJSwDCRty+Dhj56ybSXbrbhV7kYe27dtt1bVxXZpr/OCkvjGE1cM20GyY1g/xAgx8e2vC4mJ63faGCSgSIPcv/YWSD/ofD92UT8NE0ZM+mJ0lTLfgULUL3olM65piyuGZWDuSnq+kxlRv+jV9rjGE1cM20GyY1g/xAgx8e2vC4mJ63cK7Gny/+IBAAAAAGhCJKAAAAAAgFiQgAIAAAAAYkECCgAAAACIBQkoAAAAACAWqUlA63uqWK6nkhGTvhi9k0uPRc9H/TRMWFzTFlcMy6DmvXF6dH8+6qdhwuIaT1wxbAfJjmH9ECPExLe/LiQmrt8psKdpdVNG8H/W2k/WW9d9y4JPLUNxcZFt2lxhVVVV7v1K0U6vO9WLf9uUlAQRxEjaYjq0bmcL1i2xispK27Fl+05dl+IO7qXRh3c6OIhgGUjalkFpcYmt3LQ2E1Np26q37tSV7NjLvdh8vzb7BBHxjSeuGLaDZMewfogRYuLbXxcSE9fvtDFa4jk6EFWU+SHsdGmHl9wCAAAAycI5OtKAe0ABAAAAALEgAQUAAAAAxKLJm+A+N3WaPfPc83bfPeOtrEuXoLTGnLlv2f0/nZiz367a+NkmW79hY94bv3XDt9rcd+zQPighRogxW/DpYptdPs8qt1UGJbXp4Qe6/+SITocFJYWNZ9qKmfbQ0im2vnpjUFKbHmSge0mG9TgxKEnfMohruRUyP0/+YaqNnzrRyjdtCEpqK2vf2cYNH2X//pXhQUlh44krJm3bQSExzyx62Sa8+ZiVV+ZZp6WdbfSxF9nZ/U4NStK3DIghRogpLCau43Zj0AQXadAsCeiMV161iy/6jg0ZfExQalZZWWn33PfTzA/zMxt39dgmT0CXr1xjJSUl7oedi3YEuvn7oO5dgxJihBizhz96yraVbLfiVrkbBOgJfK2qi+3SXucFJYWNZ/is0baheLMVFRcFJbXpaXqdt7ezqSdMCErStwziWm6FzM/ga06rSVSKco/HMrtKJSxz73wpKChsPHHFpG07KCTmpEkXWvm2jXVuO2WtOtqrIx4PStK3DIghRogpLCau43ZjkIAiDXIfYXdR927dbPqMV1zS6a1atdrat29vXQ84IChpWvpB5/uxi/ppmDBiiBHVdOQ72RT1i9aGFDIeXUHNdxAT9YteZS1kPIXExLUMCokpZLkVMj+u5jNf8imZftHa0ULGE1dMIcs6rvHEFaMLCvVtO9Ha0bQtA2KIEWIKi4nruA3safIfZXdBr1493V8lnd5vX3jJ+vc7zNasXRuUmC1b9oGdPuwsO/jQ/q5TE11PTXWnz/i9XXTJf7h++gwAAAAAaLmaJQFt17atnXLyV13SKeXr17u/AwYc6f6Kks8bb/mx/fd9d9uHSxbavDmz7dFJj7tyb9LjT7r7RdXvb0uW1OoHAAAAAGhZmiUBlT59ervaTiWfs2a9bj0P6mGlpaVBX7N15eV2zlnDrXfvmnbsuif0ayedaO/Of899lisuH+XK1fU99FAXAwAAAABomZotAVXS+MUhg+3Fl35nHy9fYSeccHzQBwAAAACwJ2q2BFS+MHCATXr8Cfd/9Km3e5eV2ZRnp2ab1aqm9PevznQxAAAAAID0adYEVM1rzz37TPvmGacFJZ9TvzGjL7Ovfv0M95ChQUOG2ndHXJhtkttY9T1VLNdTyYghRvReP71aIR/10zBhhYxH7wvTI9vzUT8NE1bIeAqJiWsZFBJTyHIrZH70nk+9aiUvvYZFw4QUMp64YgpZ1nGNJ64YvTanvm1Hw4SlbRkQQ4wQU1hMXMdtYE/T5O8B3V3S9vJjYuKLievF83G90DrJyyCu5VbI/Dz5h6k2furEnV614in5HDd8lP37V4YHJYWNJ66YtG0HhcQ8s+hlm/DmYzu9asVT8jn62Ivs7H6nBiXpWwbEECPEFBYT13G7MXgPKNIgNQkoAAAAkGacoyMNmrUJLgAAAAAAHgkoAAAAACAW3ANKTKpiknx/XdqWW1zTVsi9mXHdN5rkmLi2gyTPDzHECDHESCH3hMc1bY1BE1ykQWoS0OUr11hJSYn7YeeiHUF1dbUd1L1rUEKMpC3m4Y+esm0l2624Ve7KfT3BslV1sV3a67ygpLAYllt80zb4mtNqThiKioKSCD2dNnPiMPfOl4ICs+GzRtuG4s1WVJw7Rk8u7Ly9nU09YUJQEt+2k+RtNG3zQwwxQgwxctKkC61828Y6jwtlrTraqyMeD0rim7bGIAFFGuQ++rdA+kHn+7GL+mmYMGLSF6MalXwntaJ+0VqXQmLimp+4YpK8DFzNZ77kUzL9orWjqvnMd5Ih6hetHS1kGSQ5ppBlHde0FRJTyPwQQ4wQQ4zoQmZ9x4Vo7Whc0wbsafKfAQAAAAAA0IRIQAEAAADEZu7b823k6B+67pobbrfy9Z/XPof7PfjI5KDU3P+5ypd9+LGNvuZGV66/+oxkIwEFAAAAEBslnBPG32wPTfiJnXf2N11CWVFZ6ZLH51+YYeNvvc7113BKSPV3QP/D3PDqZNqLM9zf1Wv+brdcd5Urv/KyS+3RyVNqJbRIHhJQAAAAALE5+cTjrG1pqfu/rEvnzP9t3P/vL1xsQwYNDMpK7ZSTjrM58+a7z1/58hA3jHTrun/wn7ly9RcX17bme5FcJKAAAAAAdgvVVpZmkk0lnKvW/N26HXhA0KcmoaysrHS1o2HR4Tx9l5LZ0iChRTKlJgGt76liuZ5KRkz6YvT+QL3CIR/10zBhhcTENT9xxSR5Geg9n3rVSl56DYuGCdF7PvVI/XzUT8OEFbIMkhxTyLKOa9oKiSlkfoghRoghRvS6rvqOCxomLK5p25MpYVSTW9V0NpRvkntEv75BSQ0lqb9+9n/tuKHHZmtXkUytbsoI/s9a+8l667pvWfCpZSguLrJNmyusqqrKvV8p2ul1p3rxb5uSkiCCGElbTGlxia3ctDYTU2nbqrfu1JXs2Mu94H6/NvsEEYXFsNzim7bO7TraW0vnW2Vm2kw5S6Qra9fZxg0fZQN69ssU1OjQup0tWLfEHYx2bNm+U9eluION7HOOHd7p4CAivm0nydto2uaHGGKEGGKkU5sO9u7qRVZRVZHJAjOJaKQrK+lko4+9yPrve2gQEd+0NUZLPEfPR4nk//zicRt3xfetW9ea2kyVqWbTf1aiuXjJMhs8aKDt1bq1u1dUtZ9jR33PffZ07+h/3f8z++4F59iR/Q4LSpFURZkfwk6Xg3jJLQAAAJAsaTlHV6Kpezt/cMkFQUkN/2ChYaef7P6Gh1PyqftDBx890PXzlHwq7vuZYaj5bBm4BxQAAABALNQ6SUnlt8/6RlDyuSP7H+b6qeZTw01/9Q2XdCrJ1L2d0eRT3pj9pktYST5bDmpAAQAAgBYgDefoSi5vv/sBW1e+Pigx9+RavUKl98E9XW3m1Bemu/LhZ5zikkvVhE58+FeuzDu098H2g+9dYA/+YrItWfZhUFpj1KXfyZmsIhmaNAGdM/ct++PsP9sVl48KSsyemzrNPl6+IlumJ1nd8uM77Owzv2VDBh/jyuqj75Azhw9zf3PZ+NkmW79hY94bv3XDt9rcd+zQPighRtIWs+DTxTa7fJ5Vbqv9tDRPDzbRvWVHdPr8/oBnFr1sE958zMorc78zSg8l0H0hZ/c7NShhWUtcMXGt00LGk+SYJK+ftG1vSZ4fYoiRJMfE9ZubtmKmPbR0iq2v3hiU1KYH0+nZAMN6nBiUxDdtjUElEdKgSRPQ8vXrbfxd99q4q8daWZcu2WRTbvh/17pHLEeHaYiGJKDLV66xkpIS98PORTsC3fx9UPeuQQkxkraYhz96yraVbLfiVrlbl+vpmq2qi+3SXucFJWYnTbrQyrdttKLioqCkNvdkvFYd7dURjwclLGuJKyaudVrIeJIck+T1k7btLcnzQwwxkuSYuH5zw2eNtg3Fm+s8LnTe3s6mnjAhKIlv2hqDBBRpkPsXVSC1ve7YoYOVryt3n1etWu3+iv9/6dJl1vWAAxqcfDaUftD5fuyifhomjJj0xegqZb4Dhahf9EqmasnyHZBE/aI1aXHNDzHxrdNCxpPkmCSvn7imrZCYtM0PMcRIkmPi+s2p5rO+40K0djSuaQP2NPl/VQVQDWf/fofbu/Pfc5/XlZfbF4cMdp0vW7FipfU8qIf7f9myD+z0YWfZwYf2t4su+Q9XOyr6q8++/J/r1rlyAAAAAEDL1aQJqPTo0d3+Mmeua36r+0H1WZ3uA1XZwkV/tS8MHOCSz6eenmLPPv2EfbhkobtHdNKvnnDDqImu7hFV+X33jLdZr70RfDsAAAAAoKVq8gS0T5/e7q+vzdRndWvWrrXVq9fYxs8+s7K9y1zt6IM/f9j6DRjkajrPPe9CN8z6DRtcE93TTj3FxauprpJRAAAAAEDL1uQJqBJGJZCvznzNNm3a5O4L9feGzv7zX2rd/3nV2CtcLafvbrv1Jtu8abOLAwAAAACkS5MnoKJ7PP84+0/uflDdF+rvDVWZv/9z77Iye3POXNcUN6xbtwNdLel77y9wn1WT+sxzz7v/AQAAAAAtV7MkoLrHc8OGT91fT/eBLs0km76sd+9DbMzoy+yrXz/DNcFVp9etKFkdecl37fqbbnVlY64cZyf863Eupi71PVUs11PJiElfjN7Jpcei56N+GiZM74TU49fzca/syAwTFtf8EBPfOi1kPEmOSfL6iWvaColJ2/wQQ4wkOSau35ze81nfcUHDhMU1bcCepknfA7o7Jfkly8TEF1PIS6OfWfSyTXjzsZ1ey+EpURl97EV2dr9TgxKWtcQVE9c6LWQ8SY5J8vpJ2/aW5PkhhhhJckxcv7lpK2baQ0un7PSqFU/J58g+59iwHicGJfFNW2PwHlCkQWoSUAAAACDNOEdHGjRLE1wAAAAAAKJIQAEAAAAAseAeUGISG8O9mYXds8IyKOy+HWIKi4nrd1rItCV5PGmLSfL+mnVKjBQSU8i209xogos0SE0CunzlGispKXE7kFy0w6murraDuncNSoiRJMecNOlCK9+20YqKi4KS2tyTTFt1tFdHPB6UpG8ZDJ812jYUb65zGXTe3s6mnjAhKGEZyMMfPWXbSrZbcavcjTz05MJW1cV2aa/zghJipJCYuH6nhUxbkseTtpgk769Zp8RIITGFbDvNjQQUaZD7F9UCaceRb6ci6qdhwohJdoyupOc7mRH1i15tj2va4opRrV99yyBaMxjXtMUVU8gy0NXqfCcMon7RK9rEFBYT1++0kGlL8njSFpPk/TXrlBgpJKaQbQdA/fL/qgAAAAAAaEIkoAAAAACAWJCAAgAAAABiQQIKAAAAAIgFCSgAAAAAIBapSUBzPb0sLNfTz4hJdozeG6dH9+fjHuufGSYsrmmLK0bvuKxvGWiYsLimLa6YQpaB3s2mx+Pno34aJoyYwmLi+p0WMm1JHk/aYpK8v2adEiOFxBSy7QCoX6ubMoL/s9Z+st667lsWfGoZiouLbNPmCquqqnLvcYp2et2pXjDcpqQkiCBGkhzTqU0He3f1IquoqsgcGTInNpGurKSTe7F5/30PDSLStww6tG5nC9YtsYrKStuxZftOXZfiDjayzzl2eKeDgwiWgZQWl9jKTWsz46m0bdVbd+pKduzlXh6+X5t9gghipJCYuH6nhUxbkseTtpgk769Zp8RIITGFbDvNrSWeowNRRZkfXOboUBsvuQUAAACShXN0pAH3gAIAAAAAYkECCgAAAACIRZM3wX1u6jQbe/U1wSezq8ZeYVdcPir49Ln7fzrReh7Uw84cPiwo2TUbP9tk6zdszHuDuW4sV9v+jh3aByXESJJjpq2YaQ8tnWLrqzcGJbXpwTO6929YjxODEpabxBWz4NPFNrt8nlVuqwxKatODGXRvzBGdDgtK4hvPM4tetglvPmbllRuCktr0MBTdj3Z2v1ODkvimLckxSV4Gca1TYogRYuKLefIPU2381IlWvinPb7t9Zxs3fJT9+1eGByXJnp/mRhNcpEGzJKDSVIllQy1fucZKSkrcziAX7Tx0k/lB3bsGJcRIkmOGzxptG4o3W1FxUVBSm56q2Hl7O5t6woSghOUmccU8/NFTtq1kuxW3yt2QQk8HbFVdbJf2Oi8oiW88J0260Mq3baxz2ylr1dFeHfF4UBLftCU5JsnLIK51SgwxQkx8MYOvOa3mwlJR7t+2ZU5TdYFp7p0vBQXJnp/mRgKKNMh99G+BtBPIt4MQ9dMwYcQkO0Y1n/lONkX9orWjcU0bMeZqr/IlEKJ+0RquuMajk5n6tp1oTVpc05bkmCQvg7jWKTHECDHxxbiaz3zJp2T6RWtH45q2QmIA1C//GUATU5PbyU/+2k4fdparJdXnOXPfCvoCAAAAANKuWRJQ3QN68KH9Xeeb5Mp77y+wZ59+IvbmuQAAAACA3a9ZEtB777rTPlyy0HXhZPPsM79lpaWlwScAAAAAwJ4ktia4AAAAAIA9GwkoAAAAgNjMfXu+jRz9Q9ddc8PtVr7+8wdNhfs9+MjkoNTc/7nKvWkvzrA77ploFZW1H2KH5ElNAlrfk8hyPcmMmGTH6D2ferVCPuqnYcLimjZiat7VqNdl5KN+GiYsrvHokf31bTsaJiyuaUtyTJKXQVzrlBhihJj4YvSeT71qJS+9hkXDhMQ1bYXEoGGUcE4Yf7M9NOEndt7Z33QJpRLHZR9+bM+/MMPG33qd66/hlJDq74D+h7nh1YkSTlHM6GtudH/blrZxZUi2VjdlBP9nrf1kvXXdtyz41Dj9+h3uuqgvffFY69btwODTzp93VXFxkW3aXGFVVVXunUzRTq871cuC25SUBBHESJJjOrRuZwvWLXE7pB1btu/UdSnuYCP7nGOHdzo4iGC5SVwxpcUltnLT2kxMpW2r3rpTV7JjLxtaNsj2a7NPEBHfeDq16WDvrl5kFVUVmTOEzIlNpCsr6WSjj73I+u97aBAR37QlOSbJyyCudUoMMUJMfDGd23W0t5bOt8rM/sB0XSrSlbXrbOOGj7IBPftlCmokeX6a266coydJ74N72l6tW7v/KyurXPI4eNBA+/Ob86zbgQfYUQOPcP3bti21OfPm23FDj7WePbq54WX1mrXu7+F9e1tZl852xikn2f777WOLlyxz3+O/G8lUlPnxZI7etfGSWwAAACBZ0niOrhpOJZk/uOQCVxM6JJNADj56oOunxFQ1nd/P9GsbepBpdDjJNyySh3tAAQAAAMROTWvV5PaUk44LSurnm+Qe0a9vUIKWhgQUAAAAQKyUSN5+9wM29rLvuSa5DaGaT9WWXnvlKGo5W7DUNMHd+NkmW79hY96bxXWTuNrpd+zQPighRtIWs+DTxTa7fJ5Vbsv9BDQ92ET3lh3R6bCghGUgcU3btBUz7aGlU2x99cagpDY9VEr39Q7rcWJQkuz5KWTa4opJ8vzEtX6IIUaIiS8myfuDuKatuaWlCW642W2Yf7DQsNNPdn/rap4bRRPcliM1CejylWuspKTE7Qxy0c5DN4wf1L1rUEKMpC3m4Y+esm0l2624Ve7KfT1ds1V1sV3a67yghGUgcU3b8FmjbUPxZisqLgpKatOTTDtvb2dTT5gQlCR7fgqZtrhikjw/ca0fYogRYuKLSfL+IK5pa25pSED1cMnHnnjGvn3WN9wDhMKURD46eYqrFS0tbWP3TXzENc/VcG/MftMuOv+cYMidkYC2HLl/hS2QdgL5dhCifhomjJj0xejKZr6Di6hf9OpnXNMWV0ySl4FqPvMln6J+0drRJM9PIdMWV0yS56eQaSOGGCEm2TFJ3h/ENW2on556u/SDj2zc9bdl3+vpX6Oipriq5VS/0eNutCP79XU1nrrn87U//iU7vDre+dly5f8lAgAAAEATUm3mnbf8KPtOT3UT7rw5ex+omt/6ct8UV0loeHh10ftAFT9m1Peo/WwBSEABAAAAALEgAQUAAAAAxIIEFAAAAAAQCxJQAAAAAEAsUpOA1vckslxPMiMmfTF6j5cepZ6P+mmYsLimLa6YJC8DvedTr1rJR/00TFiS56eQaYsrJsnzU8i0EUOMEJPsmCTvD+KaNgD1S817QON6kTExyY7hpfjJXgbTVsy0h5ZO2elVK56Sz5F9zrFhPU4MStL3YvO4YpI8P3GtH2KIEWLii0ny/iCuaWtuaXgPKJCaBBQAAABIM87RkQbcAwoAAAAAiAUJKAAAAAAgFiSgAAAAAIBYkIACAAAAAGJBAgoAAAAAiAUJKAAAAAAgFiSgAAAAAIBYkIACAAAAAGJBAgoAAAAAiAUJKAAAAAAgFkU7MoL/s95Z9IEd1e+Q4BMAAACa2yfrym3z5grbvr32qVlxcZG1a9fW9t27LCipbeY/ZtviTR/Ylu1bgpIaexXvZYe1P8RO3G9oUFLbfy38pf1+zZ9s89bKoKRGu9al9rWuX7b/2//ioKS2W1//qb24dJZt3lIRlNRot1dbO73PCXb98ZcHJbVdN/kOe37O72xzVSSuTVv71pCv220XXBuUIB/O0ZEGLbYGdO7b8+3BRyYHn+K37MOP7b6Jv7CKyto7bSRH+foNduNt97h11VTrS9+j79R3AwDST/v7O+6Z2Oz7fSWfVVVbrG3bdtahQ4dancrUT8NEKflcVLnUitoWW5sOpbU6lamfholS8vnbNa9Z5V5brbhd61qdytRPw0Qp+Zyy+GWrKKq2ojatanUqUz8NE6Xk88k/TrXN2zLH4dZFtTqVqZ+GidJxW8s/3zmfynfn+SCAxqMJLpqcDgS6QNDcdFBSUqmkMJeyLp3t5uuutN4H9wxKGi86Dn2XvlPfDQBAU1HNZ0lJiRUVZZKyCJWpn4aJUs1nq5LWeePUT8NEqeazaK/MaeDOYa5M/TRMlGo+i1rXEZfpp2GiVPNprXIFBTL93DA5tC1t4y4ARC8C6Ni8cvUa1x9Ay0ECCgAAsJup2W2uJNJTv2jTXFGz2/riok1zxTW7rSMfVL9o01xxzW7ri4s0zZVos9tc6hpGSeYbs98MPtV4f+FiG9D/8OATgJai1U0Zwf9Zaz9Zb133zX2fQVKsXvN3W5XphgwaGJTUUI3VXRN+br+c/Bt7/sUZ1r1bV+vW9QBXI3fDj+92ZdNnvmH9+vZxtVjTMp//PGeePf70VFv24XLbu6yzPfbEFPt4xSq754GHaw0bpqtwi5csc9OQazjVAv7PL37lxrfgr0tscGY6l2e+U9991MD+tlfr1m6Y1WvW2uF9e7vve+yJZ+zI/n1dP9GVvYYMv3Xr1pzzHBVeBn6aorGr1/7DLVMtxwd+/pjtv98+bp6inzUt6zdsyMzj4/bUM7/Nxqn8zbfesTnz3s2Ow8+PNHb9aD7vm/iIVVZV2W13/Xc2Rv1UvmjxUns9c0DS+P260/p8ZtpL1rfPIW76jux/mFVWVtVaX9FxT3vx99ltyX/Wss03Dr9O8k23X3e5tqNc6yG8jAAAyaHjh/bbOka0LS0NSmuEj/VK9PzxWbdq6Njo9/0SLdPxIGz9ho2ulrMu1dXV1qVzp+BTjTfL37HWJXUfQ7ZVb7Uvlh0dfKrxy2XP1dSA1mHHlu12SZ8zg081/uetyTU1oHXZtsP+z+ALgg817nvhYbPiujLXjO1mY74xMvhQQ+cpWv46lus47o+/Ws4vzphlfQ7paX//ZF2tY3hdx2V/jjBk0BdswaK/tbjjcUs4Rwfqk6oaUCU3P8scDL591jfsoQk/sfG3XmfTX33D7aQGHz3Qlam7+IJzXbn33sLF9qOrLrMfXFKzs1zywUfuSpuG/fpJx9caNizfcDogiR/fkf36umRRO8CKzIFMBzNNkzrtEDXd+ivhg1tDhpd88xym4Z9/YYbrr+GuvXKUK1eCpenz0ypKyhvid6+87pabvnPV6rVuHFqGxx5zlI269DtuHNGDtUuaQ+PTetHBQgdlP21XXnapPTp5SnYe1pWvt6UffOz66Xv9ch4z6hIbeMThdt3V/1lr3R039Fi785YfWedOHV2ZF15fitHyiC6nME17rnF49U13ru1D605XcPV9Ks+1jAAAyadjvZIe7csnjL/ZHQPVaR9/fOY45MrvvNndupGrDI2jZVaaOV4qaRQta51PhBP5hhyX/TmC4ufMm++GU6fvmpHnfA9A00pVAqpEbWUmEVJN2cjRP7Rx19/m7g3Qjkcn/rqJXeUTH/5Vtkx0UAjvwA49pJedfNJx7v+a2rPK7LBhuYYr31Czk1NC6Gln53d+/iqcOr8z1XQrgfNX7zwNW9/wdc1zmJqpaPjwfCpWn/08yCmZ/zUu1TjW57yzv5mdxm4HHrDTOKPUX52WR5jmxX+XaD71fZoO2busS3Z5+oO2pj0XrZMjMgeRXMLrKzqOQtQ33bm2D9E6VM1sfcsLAJBMOifQPlznEzr2jh53o81f8FdXpuPA1Bemu2TIy1WGxtN5jJJGfzFXx9awhhyX/TmChlWLLa0/dVo/aiUFoPml7h5QJSv+ype/0nhg1/1dTZ+SK5Wp9kk1U7uD33nqIKX/u2WmTVfztNPzyVVYQ4bPNc/R79Lw2gnvTpoHLffS3bTsk0I1qao5vv3uB9xFkVwXNwAAyabjmW/N4ju16vEtrnTsHn3NjS75yVUWpVet5HgzXpb6aZgovWqlvjgNE6VXrVj+MNfPDROhV63UG6dhIvSqlfrUN4ySR13M/cOf5rgkM9d5U2MMP+OUWusv2tIJQPNIVQLqE5voTeqqLauoqMxeEVNtoJq2NofSNjXT8Otn/9f9FU2Pxu13ltp56sqbEmNdvXv5ldfcgcxPX1h9w+eb5yglr2qWoiTQU6w+h5ucqJmoxlnWWd9d6paV6J5b1bTuCk2/lnu0iYsS4/C06cCs+d3VA0uUpl/zIeFxaDnqfz9+nSA0xK5Mt8app+lqPfppAgC0DLp1QsdIf0tILkpmdPuFP45KrjJP7/nUPZ65kkmVqZ+GidJ7PnWPZ7449dMwUXrPp+7xzJlMZsrUT8NE6T2fO7bWEZfpp2Gi9J5P3RuaV6afG6YOWu46xj45ZdpOtZ/SmOOyhtXzHfywAOLToh9CpOYSunFc3Rt/mmNDjz3GJVp6oJB2QP6m8uOGDnFJ6EOPPenKSvbay91krpvN/VVIPThAtCPSTe7+RvToZ6+u4XSD/Mw3/pR90M62bdvdQUfDaef5znsLbf9993E7TyWBb739nn352EE5HxxU3/D6TpVH5zk6vRpWy2DCzx7NDqPvOHrgEbViux/Y1S74t+EuRg/cefzp5+yZ51/KLKfl1qljBzcuJU9qRqSdt5/m8Gc9jE/NkqLTkWta9SAgXRkOT9uczHf9n+9dmJ1mfbfWq5ZF+HPHDh3sH5/8061XPSBIDyIIr5PwsPpf86Dk8vFfP1drHJqfxUs++PzBSJllIIrT9+QbR88e3fNOd77t48gjDnO18RrXi9Nnum1W6wEAkEzaz09/9XV7PnTOoWOXbrEIH+t1HqIH2+gi6/j7H3RlOv7rmPpSZn8fLfPHRq9d20wCuqXaKioqrKqq2iWcvtu2bau1bdvG9t1753Ozg9sfZJ9Vb7J/bi636kycEk7fFW8rtsPb9bYT9xsaDP25f9nvaPukstyWf7rKxSnh9F1bK7HTun7F/m//i4OhP3dCry/aPzatsw/XrbAtmWlzSWXQtSsutW/1/Zpdf/zlwdCf+9rA42zt+k9s2ZqPbMuWLe6BQ75Tjek5X/qG3XbBtW7YMP8QIp2n6XithyGu3/CpW/5ahuGHUvrzhoYcl6PDqvMPJ0wyHkKENCjakeOS2TuLPrCj+u18tQwAAADA7sE5OtIgdfeAAgAAAACSiQQUAAAAABALElAAAAAAQCxIQAEAAAAAsSABBQAAAADEggQUAAAAABALElAAAAAAQCxIQAEAAAAAsSABBQAAAADEggQUAAAAABALElAAAAAAQCxIQAEAAAAAsSABBQAAAADEggQUAAAAABALElAAAAAAQCyKdmQE/2ct/XiNfba5IvgEAAAAYHfr0K6t9enZNfgEtEw5E1AAAAAAAJoaTXABAAAAALEgAQUAAAAAxIIEFAAAAAAQCxJQAAAAAEAsSEABAAAAALEgAQUAAAAAxIIEFAAAAAAQA7P/D/Zzd75sDSnxAAAAAElFTkSuQmCC;" parent="1" vertex="1">
          <mxGeometry x="30" y="20" width="660" height="147.22" as="geometry" />
        </mxCell>
        <mxCell id="22zQzniioK6n2DwNS2DO-3" value="" style="rounded=0;whiteSpace=wrap;html=1;" parent="1" vertex="1">
          <mxGeometry x="310" y="180" width="470" height="262.78" as="geometry" />
        </mxCell>
        <mxCell id="22zQzniioK6n2DwNS2DO-6" value="Top 3 priorites" style="text;html=1;align=center;verticalAlign=middle;whiteSpace=wrap;rounded=0;" parent="1" vertex="1">
          <mxGeometry x="30" y="160" width="140" height="30" as="geometry" />
        </mxCell>
        <mxCell id="22zQzniioK6n2DwNS2DO-7" value="Brain Dumps" style="text;html=1;align=center;verticalAlign=middle;whiteSpace=wrap;rounded=0;" parent="1" vertex="1">
          <mxGeometry x="30" y="280" width="140" height="30" as="geometry" />
        </mxCell>
        <mxCell id="22zQzniioK6n2DwNS2DO-8" value="Schedule" style="text;html=1;align=center;verticalAlign=middle;whiteSpace=wrap;rounded=0;" parent="1" vertex="1">
          <mxGeometry x="310" y="160" width="60" height="30" as="geometry" />
        </mxCell>
      </root>
    </mxGraphModel>
  </diagram>
</mxfile>
